# xmcd
#
# Track frame offsets: 
#        150
#        19874
#        45336
#        67163
#        93609
#        111135
#        131696
#        167369
#        193757
#        209713
#        229015
#        253403
#        266831
#
# Disc length: 3885 seconds
#
# Revision: 0
# Processed by: cddbd v1.5.2PL0 Copyright (c) Steve Scherf et al.
# Submitted via: ExactAudioCopy v0.99pb3
#
DISCID=c30f2b0d
DTITLE=Al Basile - Soul Blue 7
DYEAR=2009
DGENRE=Blues
TTITLE0=Housekey Blues
TTITLE1=Dollar To A Dime
TTITLE2=You Showed Me Something
TTITLE3=Lonely Are The Brave
TTITLE4=I Hope You're Right
TTITLE5=Causing Joy
TTITLE6=This Dream (Still Coming True)
TTITLE7=Where Are You Tonight
TTITLE8=Wrong Love
TTITLE9=Give It Like You Get It
TTITLE10=Fool Me Again
TTITLE11=Today's Your Birthday
TTITLE12=Termites In My Basement
EXTD=
EXTT0=
EXTT1=
EXTT2=
EXTT3=
EXTT4=
EXTT5=
EXTT6=
EXTT7=
EXTT8=
EXTT9=
EXTT10=
EXTT11=
EXTT12=
PLAYORDER=
